<?xml version="1.0" encoding="UTF-8"?>
<svg id="Layer_2" data-name="Layer 2" xmlns="http://www.w3.org/2000/svg" viewBox="0 0 571.39 555.78">
  <defs>
    <style>
      .cls-1 {
        fill: #563d7c;
      }

      .cls-1, .cls-2 {
        stroke-width: 0px;
      }

      .cls-2 {
        fill: #fff;
      }
    </style>
  </defs>
  <path class="cls-1" d="m571.39,457.64c0,50.34-41.19,91.53-91.53,91.53H113.75c-50.34,0-91.53-41.19-91.53-91.53V91.53C22.23,41.19,63.41,0,113.75,0h366.11c50.34,0,91.53,41.19,91.53,91.53v366.11Z"/>
  <path class="cls-2" d="m171.45,119.35h155.69c28.71,0,51.78,6.55,69.09,19.74s26.02,33.02,26.02,59.67c0,16.15-3.95,29.97-11.84,41.46-7.9,11.49-19.2,20.46-33.92,26.74v.9c19.74,4.22,34.73,13.55,44.87,28,10.14,14.54,15.25,32.66,15.25,54.56,0,12.56-2.24,24.32-6.73,35.18-4.49,10.95-11.49,20.37-21.09,28.27-9.6,7.9-21.81,14.18-36.79,18.84s-32.75,7-53.39,7h-147.16V119.35Zm56.08,134.15h91.53c13.46,0,24.68-3.77,33.65-11.49,8.97-7.72,13.46-18.66,13.46-33.02,0-16.15-4.04-27.55-12.11-34.1-8.08-6.55-19.74-9.87-35-9.87h-91.53v88.48Zm0,140.43h99.16c17.05,0,30.33-4.4,39.66-13.28,9.42-8.79,14.18-21.36,14.18-37.51s-4.67-28-14.18-36.61c-9.51-8.61-22.61-12.74-39.66-12.74h-99.16v100.14Z"/>
</svg>