<?xml version="1.0" encoding="UTF-8"?>
<svg id="Layer_1" data-name="Layer 1" xmlns="http://www.w3.org/2000/svg" xmlns:xlink="http://www.w3.org/1999/xlink" viewBox="0 0 357.08 357">
  <defs>
    <style>
      .cls-1 {
        fill: #263238;
      }

      .cls-1, .cls-2, .cls-3 {
        isolation: isolate;
        opacity: .2;
      }

      .cls-1, .cls-2, .cls-3, .cls-4, .cls-5, .cls-6 {
        stroke-width: 0px;
      }

      .cls-2 {
        fill: #fff;
      }

      .cls-3 {
        fill: url(#radial-gradient);
      }

      .cls-4 {
        fill: #29b6f6;
      }

      .cls-5 {
        fill: #40c4ff;
      }

      .cls-6 {
        fill: #01579b;
      }
    </style>
    <radialGradient id="radial-gradient" cx="-16.97" cy="576.16" fx="-16.97" fy="576.16" r="84.17" gradientTransform="translate(214.54 -1043.43) scale(2.12)" gradientUnits="userSpaceOnUse">
      <stop offset="0" stop-color="#fff" stop-opacity=".1"/>
      <stop offset="1" stop-color="#fff" stop-opacity="0"/>
    </radialGradient>
  </defs>
  <path class="cls-6" d="m72.81,284.17l-61.06-61.06c-7.24-7.45-11.75-17.94-11.75-28.19,0-4.75,2.68-12.17,4.69-16.44L61.06,61.06l11.75,223.11Z"/>
  <path class="cls-5" d="m281.83,72.81l-61.06-61.06c-5.32-5.35-16.44-11.75-25.83-11.75-8.08,0-16,1.63-21.14,4.69L61.08,61.06l220.75,11.75Zm11.75,220.75l-110.39-35.22-100.97,35.22,63.39,63.42h147.97v-63.42Z"/>
  <path class="cls-4" d="m61.08,251.31c0,18.83,2.36,23.47,11.75,32.89l9.39,9.39h211.36l-103.33-117.42L61.08,61.08v190.22Z"/>
  <path class="cls-6" d="m248.95,61.06H61.06l232.5,232.5h63.42v-145.61l-75.14-75.14c-10.54-10.6-19.93-11.75-32.89-11.75h0Z"/>
  <path class="cls-2" d="m75.17,286.53c-9.39-9.44-11.75-18.73-11.75-35.22V63.42l-2.36-2.36v190.22c.03,16.52.03,21.09,14.11,35.25l7.06,7.06-7.06-7.06Z"/>
  <path class="cls-1" d="m291.22,291.22l2.36,2.33h63.42v-145.59l-2.36-2.36v145.61h-63.42Z"/>
  <path class="cls-2" d="m281.83,72.81c-11.64-11.64-21.19-11.75-35.22-11.75H61.08l2.36,2.36h183.19c6.98,0,24.68-1.18,35.2,9.39Z"/>
  <path class="cls-3" d="m354.64,145.61l-72.81-72.81-61.06-61.06c-5.32-5.35-16.44-11.75-25.83-11.75-8.08,0-16,1.63-21.14,4.69L61.08,61.06,4.72,178.47C2.7,182.75.03,190.17.03,194.92c0,10.25,4.51,20.75,11.75,28.19l56.28,55.86c1.34,1.65,2.91,3.33,4.8,5.19l2.36,2.36,7.06,7.06,61.06,61.06,2.36,2.36h147.97v-63.42h63.42v-145.61l-2.44-2.36Z"/>
</svg>