<?xml version="1.0" encoding="UTF-8"?>
<svg id="Layer_2" data-name="Layer 2" xmlns="http://www.w3.org/2000/svg" viewBox="0 0 547.01 533.33">
  <defs>
    <style>
      .cls-1 {
        fill: #e44d26;
      }

      .cls-1, .cls-2, .cls-3, .cls-4 {
        stroke-width: 0px;
      }

      .cls-2 {
        fill: #fff;
      }

      .cls-3 {
        fill: #f16529;
      }

      .cls-4 {
        fill: #ebebeb;
      }
    </style>
  </defs>
  <polygon class="cls-1" points="509.17 0 273.51 0 273.5 0 37.84 0 82.03 479.06 273.5 533.33 273.5 533.33 273.5 533.33 273.51 533.33 273.51 533.33 464.98 479.06 509.17 0"/>
  <polygon class="cls-3" points="273.5 39.03 273.5 492.76 273.5 492.76 428.58 448.81 466.37 39.03 273.5 39.03"/>
  <polygon class="cls-2" points="421.76 97.77 125.25 97.77 141.8 277.22 142.15 276.05 344.79 276.05 338.12 351.94 273.56 370.59 207.91 351.67 203.95 305.75 144.43 305.75 152.9 397.53 273.5 431.72 394.11 397.53 410.72 217.4 195.77 217.4 190.23 157.36 416.26 157.36 421.76 97.77"/>
  <path class="cls-4" d="m273.5,97.77H125.25l16.55,179.45.35-1.16h131.35v-58.65h-77.73l-5.54-60.04h83.27v-59.59Zm-69.55,207.98h-59.52l8.46,91.78,120.6,34.18v-61.14l-65.58-18.91-3.97-45.92Z"/>
</svg>