<?xml version="1.0" encoding="UTF-8"?>
<svg id="Layer_2" data-name="Layer 2" xmlns="http://www.w3.org/2000/svg" viewBox="0 0 547.01 539.94">
  <defs>
    <style>
      .cls-1 {
        fill: #f8981d;
      }

      .cls-1, .cls-2 {
        stroke-width: 0px;
      }

      .cls-2 {
        fill: #5382a1;
      }
    </style>
  </defs>
  <path class="cls-2" d="m404.8,420.57h-2.01v-1.12h5.41v1.12h-2v5.61h-1.4v-5.61Zm10.79.29h-.03l-1.99,5.32h-.91l-1.98-5.32h-.02v5.32h-1.32v-6.73h1.95l1.83,4.77,1.83-4.77h1.94v6.73h-1.29v-5.32h0Zm-190.66-137.96s-13.98,8.13,9.95,10.88c28.99,3.31,43.8,2.83,75.75-3.21,0,0,8.4,5.27,20.13,9.83-71.61,30.69-162.07-1.78-105.83-17.49m-8.75-40.05s-15.68,11.61,8.27,14.08c30.97,3.19,55.42,3.46,97.74-4.69,0,0,5.85,5.93,15.06,9.18-86.58,25.32-183.02,2-121.06-18.57"/>
  <path class="cls-1" d="m289.95,174.92c17.65,20.32-4.64,38.6-4.64,38.6,0,0,44.8-23.13,24.23-52.09-19.22-27.01-33.96-40.43,45.83-86.7,0,0-125.23,31.28-65.42,100.2"/>
  <path class="cls-2" d="m384.67,312.53s10.35,8.52-11.39,15.12c-41.34,12.52-172.05,16.3-208.36.5-13.05-5.68,11.42-13.56,19.12-15.21,8.03-1.74,12.62-1.42,12.62-1.42-14.52-10.23-93.82,20.08-40.29,28.76,146.01,23.68,266.16-10.66,228.29-27.75m-153.01-111.17s-66.49,15.79-23.54,21.53c18.13,2.43,54.28,1.88,87.94-.94,27.52-2.32,55.14-7.26,55.14-7.26,0,0-9.7,4.16-16.72,8.95-67.52,17.76-197.95,9.5-160.4-8.67,31.76-15.35,57.57-13.61,57.57-13.61m119.27,66.67c68.63-35.66,36.9-69.94,14.75-65.32-5.43,1.13-7.85,2.11-7.85,2.11,0,0,2.02-3.16,5.86-4.52,43.82-15.41,77.52,45.44-14.15,69.53,0,0,1.06-.95,1.38-1.8"/>
  <path class="cls-1" d="m309.55,0s38.01,38.02-36.05,96.49c-59.39,46.9-13.54,73.64-.02,104.2-34.67-31.28-60.11-58.81-43.04-84.44,25.05-37.62,94.45-55.85,79.12-116.25"/>
  <path class="cls-2" d="m238.4,364.67c65.88,4.22,167.05-2.34,169.44-33.51,0,0-4.61,11.82-54.45,21.2-56.23,10.58-125.58,9.35-166.71,2.56,0,0,8.42,6.97,51.72,9.75m-10.8,119.11c-6.21,5.39-12.78,8.42-18.67,8.42-8.41,0-12.95-5.04-12.95-13.13,0-8.75,4.87-15.14,24.39-15.14h7.23v19.85m17.15,19.35v-59.89c0-15.3-8.73-25.4-29.77-25.4-12.28,0-23.04,3.03-31.79,6.9l2.52,10.6c6.89-2.53,15.8-4.88,24.55-4.88,12.12,0,17.33,4.88,17.33,14.97v7.57h-6.05c-29.45,0-42.73,11.43-42.73,28.59,0,14.81,8.75,23.22,25.24,23.22,10.59,0,18.5-4.37,25.9-10.78l1.34,9.09h13.45Zm57.23,0h-21.39l-25.74-83.77h18.68l15.97,51.47,3.55,15.48c8.08-22.38,13.8-45.09,16.65-66.95h18.17c-4.87,27.59-13.63,57.86-25.89,83.77m82.05-19.35c-6.23,5.39-12.8,8.42-18.69,8.42-8.39,0-12.95-5.04-12.95-13.13,0-8.75,4.88-15.14,24.4-15.14h7.24v19.85m17.15,19.35v-59.89c0-15.3-8.75-25.4-29.76-25.4-12.29,0-23.05,3.03-31.8,6.9l2.52,10.6c6.89-2.53,15.82-4.88,24.56-4.88,12.11,0,17.33,4.88,17.33,14.97v7.57h-6.06c-29.46,0-42.73,11.43-42.73,28.59,0,14.81,8.75,23.22,25.23,23.22,10.6,0,18.51-4.37,25.91-10.78l1.35,9.09h13.45Zm-241.16,14.23c-4.89,7.14-12.78,12.78-21.43,15.98l-8.47-9.96c6.58-3.38,12.22-8.83,14.84-13.91,2.27-4.52,3.21-10.34,3.21-24.26v-95.64h18.22v94.33c0,18.61-1.49,26.13-6.37,33.46"/>
</svg>