<?xml version="1.0" encoding="UTF-8"?>
<svg id="Layer_2" data-name="Layer 2" xmlns="http://www.w3.org/2000/svg" viewBox="0 0 588.97 555.78">
  <defs>
    <style>
      .cls-1 {
        fill: #f80000;
        stroke-width: 0px;
      }
    </style>
  </defs>
  <path class="cls-1" d="m245.17,267.66h37.53l-19.84-31.92-36.42,57.72h-16.57l44.3-69.33c1.93-2.8,5.14-4.49,8.7-4.49s6.65,1.63,8.52,4.38l44.47,69.45h-16.57l-7.82-12.9h-37.99l-8.29-12.9Zm172.17,12.9v-60.23h-14.06v66.12c0,1.81.7,3.56,2.04,4.9s3.15,2.1,5.14,2.1h64.14l8.29-12.9h-65.54Zm-232.69-10.8c13.66,0,24.75-11.03,24.75-24.69s-11.09-24.75-24.75-24.75h-61.53v73.13h14.06v-60.23h46.54c6.54,0,11.79,5.31,11.79,11.85s-5.25,11.85-11.79,11.85l-39.65-.06,41.98,36.59h20.43l-28.25-23.69h6.42Zm-148.08,23.69c-20.19,0-36.57-16.34-36.57-36.53s16.38-36.59,36.57-36.59h42.5c20.19,0,36.56,16.4,36.56,36.59s-16.37,36.53-36.56,36.53h-42.5Zm41.56-12.9c13.08,0,23.67-10.56,23.67-23.64s-10.59-23.69-23.67-23.69h-40.62c-13.07,0-23.67,10.62-23.67,23.69s10.6,23.64,23.67,23.64h40.62Zm267.07,12.9c-20.19,0-36.59-16.34-36.59-36.53s16.4-36.59,36.59-36.59h50.48l-8.23,12.9h-41.32c-13.07,0-23.69,10.62-23.69,23.69s10.62,23.64,23.69,23.64h50.72l-8.29,12.9h-43.36Zm171.99-12.9c-10.8,0-19.96-7.24-22.76-17.22h60.11l8.29-12.9h-68.4c2.8-9.92,11.96-17.22,22.76-17.22h41.26l8.35-12.9h-50.54c-20.19,0-36.59,16.4-36.59,36.59s16.4,36.53,36.59,36.53h43.36l8.29-12.9h-50.72m57.14-52.47c-.01-3.54,2.85-6.41,6.38-6.42.01,0,.03,0,.04,0,3.62,0,6.48,2.86,6.48,6.42s-2.86,6.48-6.48,6.48-6.42-2.86-6.42-6.48Zm6.42,8.29c4.55,0,8.23-3.68,8.23-8.23s-3.68-8.23-8.23-8.23-8.17,3.68-8.17,8.23,3.68,8.23,8.17,8.23Zm-.76-13.13c1.28,0,1.81.06,2.39.29,1.63.53,1.81,1.98,1.81,2.57,0,.12,0,.41-.12.76-.06.35-.29,1.05-1.11,1.58-.12.06-.18.12-.41.23l2.1,3.79h-2.04l-1.87-3.5h-1.28v3.5h-1.81v-9.22h2.33Zm.64,4.2c.58-.06,1.17-.06,1.52-.58.17-.23.23-.47.23-.82,0-.47-.29-.88-.7-1.11-.41-.18-.82-.18-1.69-.18h-.52v2.68h1.17"/>
</svg>